<svg xmlns="http://www.w3.org/2000/svg" width="980" height="430" viewBox="0 0 980 430">
<rect width="100%" height="100%" fill="#111511"/>
<text x="490.0" y="30" fill="#d9f7a4" text-anchor="middle" font-family="Consolas, monospace" font-size="18" font-weight="700">Core averages by model</text>
<line x1="90" y1="340.0" x2="950" y2="340.0" stroke="#263024"/>
<text x="82" y="344.0" fill="#9bab8c" text-anchor="end" font-family="Consolas, monospace" font-size="11">0</text>
<line x1="90" y1="268.8" x2="950" y2="268.8" stroke="#263024"/>
<text x="82" y="272.8" fill="#9bab8c" text-anchor="end" font-family="Consolas, monospace" font-size="11">38</text>
<line x1="90" y1="197.5" x2="950" y2="197.5" stroke="#263024"/>
<text x="82" y="201.5" fill="#9bab8c" text-anchor="end" font-family="Consolas, monospace" font-size="11">76</text>
<line x1="90" y1="126.2" x2="950" y2="126.2" stroke="#263024"/>
<text x="82" y="130.2" fill="#9bab8c" text-anchor="end" font-family="Consolas, monospace" font-size="11">113</text>
<line x1="90" y1="55.0" x2="950" y2="55.0" stroke="#263024"/>
<text x="82" y="59.0" fill="#9bab8c" text-anchor="end" font-family="Consolas, monospace" font-size="11">151</text>
<rect x="155.5" y="212.8" width="38.0" height="127.2" fill="#8bd450" rx="3"/>
<text x="174.5" y="207.8" fill="#f1f7e8" text-anchor="middle" font-family="Consolas, monospace" font-size="10">68</text>
<rect x="197.5" y="55.0" width="38.0" height="285.0" fill="#ffd166" rx="3"/>
<text x="216.5" y="50.0" fill="#f1f7e8" text-anchor="middle" font-family="Consolas, monospace" font-size="10">151</text>
<text x="197.5" y="364" fill="#cfe6b8" text-anchor="middle" font-family="Consolas, monospace" font-size="12">Damage</text>
<rect x="370.5" y="221.8" width="38.0" height="118.2" fill="#8bd450" rx="3"/>
<text x="389.5" y="216.8" fill="#f1f7e8" text-anchor="middle" font-family="Consolas, monospace" font-size="10">63</text>
<rect x="412.5" y="230.1" width="38.0" height="109.9" fill="#ffd166" rx="3"/>
<text x="431.5" y="225.1" fill="#f1f7e8" text-anchor="middle" font-family="Consolas, monospace" font-size="10">58</text>
<text x="412.5" y="364" fill="#cfe6b8" text-anchor="middle" font-family="Consolas, monospace" font-size="12">Accuracy %</text>
<rect x="585.5" y="292.0" width="38.0" height="48.0" fill="#8bd450" rx="3"/>
<text x="604.5" y="287.0" fill="#f1f7e8" text-anchor="middle" font-family="Consolas, monospace" font-size="10">25</text>
<rect x="627.5" y="248.2" width="38.0" height="91.8" fill="#ffd166" rx="3"/>
<text x="646.5" y="243.2" fill="#f1f7e8" text-anchor="middle" font-family="Consolas, monospace" font-size="10">49</text>
<text x="627.5" y="364" fill="#cfe6b8" text-anchor="middle" font-family="Consolas, monospace" font-size="12">Center %</text>
<rect x="800.5" y="338.1" width="38.0" height="1.9" fill="#8bd450" rx="3"/>
<text x="819.5" y="333.1" fill="#f1f7e8" text-anchor="middle" font-family="Consolas, monospace" font-size="10">1</text>
<rect x="842.5" y="304.2" width="38.0" height="35.8" fill="#ffd166" rx="3"/>
<text x="861.5" y="299.2" fill="#f1f7e8" text-anchor="middle" font-family="Consolas, monospace" font-size="10">19</text>
<text x="842.5" y="364" fill="#cfe6b8" text-anchor="middle" font-family="Consolas, monospace" font-size="12">Shotgun pickups</text>
<rect x="90" y="396" width="12" height="12" fill="#8bd450"/>
<text x="108" y="406" fill="#cfe6b8" font-family="Consolas, monospace" font-size="12">Codex Spark</text>
<rect x="240" y="396" width="12" height="12" fill="#ffd166"/>
<text x="258" y="406" fill="#cfe6b8" font-family="Consolas, monospace" font-size="12">GPT-5.5</text>
</svg>