<svg xmlns="http://www.w3.org/2000/svg" width="980" height="430" viewBox="0 0 980 430">
<rect width="100%" height="100%" fill="#111511"/>
<text x="490.0" y="30" fill="#d9f7a4" text-anchor="middle" font-family="Consolas, monospace" font-size="18" font-weight="700">Participant-specific decision latency by match</text>
<line x1="80" y1="350.0" x2="945" y2="350.0" stroke="#263024"/>
<text x="72" y="354.0" fill="#9bab8c" text-anchor="end" font-family="Consolas, monospace" font-size="11">0</text>
<line x1="80" y1="276.2" x2="945" y2="276.2" stroke="#263024"/>
<text x="72" y="280.2" fill="#9bab8c" text-anchor="end" font-family="Consolas, monospace" font-size="11">2781</text>
<line x1="80" y1="202.5" x2="945" y2="202.5" stroke="#263024"/>
<text x="72" y="206.5" fill="#9bab8c" text-anchor="end" font-family="Consolas, monospace" font-size="11">5562</text>
<line x1="80" y1="128.8" x2="945" y2="128.8" stroke="#263024"/>
<text x="72" y="132.8" fill="#9bab8c" text-anchor="end" font-family="Consolas, monospace" font-size="11">8344</text>
<line x1="80" y1="55.0" x2="945" y2="55.0" stroke="#263024"/>
<text x="72" y="59.0" fill="#9bab8c" text-anchor="end" font-family="Consolas, monospace" font-size="11">11125</text>
<polyline fill="none" stroke="#8bd450" stroke-width="3" points="80.0,284.6 125.5,314.3 171.1,309.0 216.6,299.7 262.1,321.4 307.6,292.7 353.2,315.1 398.7,309.1 444.2,318.1 489.7,313.0 535.3,297.9 580.8,300.1 626.3,306.3 671.8,293.7 717.4,260.4 762.9,306.9 808.4,350.0 853.9,282.1 899.5,350.0 945.0,350.0"/>
<circle cx="80.0" cy="284.6" r="4" fill="#8bd450"/>
<circle cx="125.5" cy="314.3" r="4" fill="#8bd450"/>
<circle cx="171.1" cy="309.0" r="4" fill="#8bd450"/>
<circle cx="216.6" cy="299.7" r="4" fill="#8bd450"/>
<circle cx="262.1" cy="321.4" r="4" fill="#8bd450"/>
<circle cx="307.6" cy="292.7" r="4" fill="#8bd450"/>
<circle cx="353.2" cy="315.1" r="4" fill="#8bd450"/>
<circle cx="398.7" cy="309.1" r="4" fill="#8bd450"/>
<circle cx="444.2" cy="318.1" r="4" fill="#8bd450"/>
<circle cx="489.7" cy="313.0" r="4" fill="#8bd450"/>
<circle cx="535.3" cy="297.9" r="4" fill="#8bd450"/>
<circle cx="580.8" cy="300.1" r="4" fill="#8bd450"/>
<circle cx="626.3" cy="306.3" r="4" fill="#8bd450"/>
<circle cx="671.8" cy="293.7" r="4" fill="#8bd450"/>
<circle cx="717.4" cy="260.4" r="4" fill="#8bd450"/>
<circle cx="762.9" cy="306.9" r="4" fill="#8bd450"/>
<circle cx="808.4" cy="350.0" r="4" fill="#8bd450"/>
<circle cx="853.9" cy="282.1" r="4" fill="#8bd450"/>
<circle cx="899.5" cy="350.0" r="4" fill="#8bd450"/>
<circle cx="945.0" cy="350.0" r="4" fill="#8bd450"/>
<polyline fill="none" stroke="#ffd166" stroke-width="3" points="80.0,191.3 125.5,148.8 171.1,55.0 216.6,162.1 262.1,117.6 307.6,221.1 353.2,148.0 398.7,128.8 444.2,229.9 489.7,163.2 535.3,246.2 580.8,265.3 626.3,264.3 671.8,264.2 717.4,262.9 762.9,218.8 808.4,262.7 853.9,257.9 899.5,240.2 945.0,250.9"/>
<circle cx="80.0" cy="191.3" r="4" fill="#ffd166"/>
<circle cx="125.5" cy="148.8" r="4" fill="#ffd166"/>
<circle cx="171.1" cy="55.0" r="4" fill="#ffd166"/>
<circle cx="216.6" cy="162.1" r="4" fill="#ffd166"/>
<circle cx="262.1" cy="117.6" r="4" fill="#ffd166"/>
<circle cx="307.6" cy="221.1" r="4" fill="#ffd166"/>
<circle cx="353.2" cy="148.0" r="4" fill="#ffd166"/>
<circle cx="398.7" cy="128.8" r="4" fill="#ffd166"/>
<circle cx="444.2" cy="229.9" r="4" fill="#ffd166"/>
<circle cx="489.7" cy="163.2" r="4" fill="#ffd166"/>
<circle cx="535.3" cy="246.2" r="4" fill="#ffd166"/>
<circle cx="580.8" cy="265.3" r="4" fill="#ffd166"/>
<circle cx="626.3" cy="264.3" r="4" fill="#ffd166"/>
<circle cx="671.8" cy="264.2" r="4" fill="#ffd166"/>
<circle cx="717.4" cy="262.9" r="4" fill="#ffd166"/>
<circle cx="762.9" cy="218.8" r="4" fill="#ffd166"/>
<circle cx="808.4" cy="262.7" r="4" fill="#ffd166"/>
<circle cx="853.9" cy="257.9" r="4" fill="#ffd166"/>
<circle cx="899.5" cy="240.2" r="4" fill="#ffd166"/>
<circle cx="945.0" cy="250.9" r="4" fill="#ffd166"/>
<rect x="80" y="396" width="12" height="12" fill="#8bd450"/>
<text x="98" y="406" fill="#cfe6b8" font-family="Consolas, monospace" font-size="12">Codex Spark</text>
<rect x="240" y="396" width="12" height="12" fill="#ffd166"/>
<text x="258" y="406" fill="#cfe6b8" font-family="Consolas, monospace" font-size="12">GPT-5.5</text>
</svg>