<svg xmlns="http://www.w3.org/2000/svg" width="980" height="430" viewBox="0 0 980 430">
<rect width="100%" height="100%" fill="#111511"/>
<text x="490.0" y="30" fill="#d9f7a4" text-anchor="middle" font-family="Consolas, monospace" font-size="18" font-weight="700">Most used plan objectives</text>
<line x1="90" y1="340.0" x2="950" y2="340.0" stroke="#263024"/>
<text x="82" y="344.0" fill="#9bab8c" text-anchor="end" font-family="Consolas, monospace" font-size="11">0</text>
<line x1="90" y1="268.8" x2="950" y2="268.8" stroke="#263024"/>
<text x="82" y="272.8" fill="#9bab8c" text-anchor="end" font-family="Consolas, monospace" font-size="11">11</text>
<line x1="90" y1="197.5" x2="950" y2="197.5" stroke="#263024"/>
<text x="82" y="201.5" fill="#9bab8c" text-anchor="end" font-family="Consolas, monospace" font-size="11">22</text>
<line x1="90" y1="126.2" x2="950" y2="126.2" stroke="#263024"/>
<text x="82" y="130.2" fill="#9bab8c" text-anchor="end" font-family="Consolas, monospace" font-size="11">34</text>
<line x1="90" y1="55.0" x2="950" y2="55.0" stroke="#263024"/>
<text x="82" y="59.0" fill="#9bab8c" text-anchor="end" font-family="Consolas, monospace" font-size="11">45</text>
<rect x="191.3" y="55.0" width="38.0" height="285.0" fill="#8bd450" rx="3"/>
<text x="210.3" y="50.0" fill="#f1f7e8" text-anchor="middle" font-family="Consolas, monospace" font-size="10">45</text>
<rect x="233.3" y="213.3" width="38.0" height="126.7" fill="#ffd166" rx="3"/>
<text x="252.3" y="208.3" fill="#f1f7e8" text-anchor="middle" font-family="Consolas, monospace" font-size="10">20</text>
<text x="233.3" y="364" fill="#cfe6b8" text-anchor="middle" font-family="Consolas, monospace" font-size="12">pick_up_shotgun</text>
<rect x="478.0" y="314.7" width="38.0" height="25.3" fill="#8bd450" rx="3"/>
<text x="497.0" y="309.7" fill="#f1f7e8" text-anchor="middle" font-family="Consolas, monospace" font-size="10">4</text>
<rect x="520.0" y="333.7" width="38.0" height="6.3" fill="#ffd166" rx="3"/>
<text x="539.0" y="328.7" fill="#f1f7e8" text-anchor="middle" font-family="Consolas, monospace" font-size="10">1</text>
<text x="520.0" y="364" fill="#cfe6b8" text-anchor="middle" font-family="Consolas, monospace" font-size="12">heal</text>
<rect x="764.7" y="327.3" width="38.0" height="12.7" fill="#8bd450" rx="3"/>
<text x="783.7" y="322.3" fill="#f1f7e8" text-anchor="middle" font-family="Consolas, monospace" font-size="10">2</text>
<rect x="806.7" y="321.0" width="38.0" height="19.0" fill="#ffd166" rx="3"/>
<text x="825.7" y="316.0" fill="#f1f7e8" text-anchor="middle" font-family="Consolas, monospace" font-size="10">3</text>
<text x="806.7" y="364" fill="#cfe6b8" text-anchor="middle" font-family="Consolas, monospace" font-size="12">force_fight</text>
<rect x="90" y="396" width="12" height="12" fill="#8bd450"/>
<text x="108" y="406" fill="#cfe6b8" font-family="Consolas, monospace" font-size="12">Codex Spark</text>
<rect x="240" y="396" width="12" height="12" fill="#ffd166"/>
<text x="258" y="406" fill="#cfe6b8" font-family="Consolas, monospace" font-size="12">GPT-5.5</text>
</svg>