<svg xmlns="http://www.w3.org/2000/svg" width="980" height="430" viewBox="0 0 980 430">
<rect width="100%" height="100%" fill="#111511"/>
<text x="490.0" y="30" fill="#d9f7a4" text-anchor="middle" font-family="Consolas, monospace" font-size="18" font-weight="700">Wins by model for each side assignment</text>
<line x1="90" y1="340.0" x2="950" y2="340.0" stroke="#263024"/>
<text x="82" y="344.0" fill="#9bab8c" text-anchor="end" font-family="Consolas, monospace" font-size="11">0</text>
<line x1="90" y1="268.8" x2="950" y2="268.8" stroke="#263024"/>
<text x="82" y="272.8" fill="#9bab8c" text-anchor="end" font-family="Consolas, monospace" font-size="11">2</text>
<line x1="90" y1="197.5" x2="950" y2="197.5" stroke="#263024"/>
<text x="82" y="201.5" fill="#9bab8c" text-anchor="end" font-family="Consolas, monospace" font-size="11">5</text>
<line x1="90" y1="126.2" x2="950" y2="126.2" stroke="#263024"/>
<text x="82" y="130.2" fill="#9bab8c" text-anchor="end" font-family="Consolas, monospace" font-size="11">8</text>
<line x1="90" y1="55.0" x2="950" y2="55.0" stroke="#263024"/>
<text x="82" y="59.0" fill="#9bab8c" text-anchor="end" font-family="Consolas, monospace" font-size="11">10</text>
<rect x="263.0" y="311.5" width="38.0" height="28.5" fill="#8bd450" rx="3"/>
<text x="282.0" y="306.5" fill="#f1f7e8" text-anchor="middle" font-family="Consolas, monospace" font-size="10">1</text>
<rect x="305.0" y="83.5" width="38.0" height="256.5" fill="#ffd166" rx="3"/>
<text x="324.0" y="78.5" fill="#f1f7e8" text-anchor="middle" font-family="Consolas, monospace" font-size="10">9</text>
<text x="305.0" y="364" fill="#cfe6b8" text-anchor="middle" font-family="Consolas, monospace" font-size="12">Spark P1 / GPT ...</text>
<rect x="693.0" y="340.0" width="38.0" height="0.0" fill="#8bd450" rx="3"/>
<text x="712.0" y="335.0" fill="#f1f7e8" text-anchor="middle" font-family="Consolas, monospace" font-size="10">0</text>
<rect x="735.0" y="55.0" width="38.0" height="285.0" fill="#ffd166" rx="3"/>
<text x="754.0" y="50.0" fill="#f1f7e8" text-anchor="middle" font-family="Consolas, monospace" font-size="10">10</text>
<text x="735.0" y="364" fill="#cfe6b8" text-anchor="middle" font-family="Consolas, monospace" font-size="12">GPT P1 / Spark ...</text>
<rect x="90" y="396" width="12" height="12" fill="#8bd450"/>
<text x="108" y="406" fill="#cfe6b8" font-family="Consolas, monospace" font-size="12">Codex Spark</text>
<rect x="240" y="396" width="12" height="12" fill="#ffd166"/>
<text x="258" y="406" fill="#cfe6b8" font-family="Consolas, monospace" font-size="12">GPT-5.5</text>
</svg>