<svg xmlns="http://www.w3.org/2000/svg" viewBox="0 0 512 384" fill="none">
  <!-- Generated by scripts/generate_duel_room_wad.py from scripts/map_blueprints/duel_e1m8_ascii.txt. -->
  <rect width="512" height="384" rx="12" fill="#0f1413"/>
  <rect x="40" y="30" width="432" height="324" fill="#141b19" stroke="#d7e0d8" stroke-width="4"/>
  <rect x="223.273" y="86.348" width="13.091" height="14.087" fill="#7b8b84" stroke="#d7e0d8" stroke-width="4"/>
  <rect x="223.273" y="86.348" width="13.091" height="14.087" fill="#7b8b84" stroke="#d7e0d8" stroke-width="4"/>
  <rect x="236.364" y="86.348" width="13.091" height="14.087" fill="#7b8b84" stroke="#d7e0d8" stroke-width="4"/>
  <rect x="249.455" y="86.348" width="13.091" height="14.087" fill="#7b8b84" stroke="#d7e0d8" stroke-width="4"/>
  <rect x="262.545" y="86.348" width="13.091" height="14.087" fill="#7b8b84" stroke="#d7e0d8" stroke-width="4"/>
  <rect x="275.636" y="86.348" width="13.091" height="14.087" fill="#7b8b84" stroke="#d7e0d8" stroke-width="4"/>
  <rect x="275.636" y="86.348" width="13.091" height="14.087" fill="#7b8b84" stroke="#d7e0d8" stroke-width="4"/>
  <rect x="118.545" y="100.435" width="13.091" height="14.087" fill="#7b8b84" stroke="#d7e0d8" stroke-width="4"/>
  <rect x="118.545" y="100.435" width="13.091" height="14.087" fill="#7b8b84" stroke="#d7e0d8" stroke-width="4"/>
  <rect x="131.636" y="100.435" width="13.091" height="14.087" fill="#7b8b84" stroke="#d7e0d8" stroke-width="4"/>
  <rect x="223.273" y="100.435" width="13.091" height="14.087" fill="#7b8b84" stroke="#d7e0d8" stroke-width="4"/>
  <rect x="275.636" y="100.435" width="13.091" height="14.087" fill="#7b8b84" stroke="#d7e0d8" stroke-width="4"/>
  <rect x="367.273" y="100.435" width="13.091" height="14.087" fill="#7b8b84" stroke="#d7e0d8" stroke-width="4"/>
  <rect x="380.364" y="100.435" width="13.091" height="14.087" fill="#7b8b84" stroke="#d7e0d8" stroke-width="4"/>
  <rect x="380.364" y="100.435" width="13.091" height="14.087" fill="#7b8b84" stroke="#d7e0d8" stroke-width="4"/>
  <rect x="118.545" y="114.522" width="13.091" height="14.087" fill="#7b8b84" stroke="#d7e0d8" stroke-width="4"/>
  <rect x="223.273" y="114.522" width="13.091" height="14.087" fill="#7b8b84" stroke="#d7e0d8" stroke-width="4"/>
  <rect x="275.636" y="114.522" width="13.091" height="14.087" fill="#7b8b84" stroke="#d7e0d8" stroke-width="4"/>
  <rect x="380.364" y="114.522" width="13.091" height="14.087" fill="#7b8b84" stroke="#d7e0d8" stroke-width="4"/>
  <rect x="105.455" y="128.609" width="13.091" height="14.087" fill="#7b8b84" stroke="#d7e0d8" stroke-width="4"/>
  <rect x="105.455" y="128.609" width="13.091" height="14.087" fill="#7b8b84" stroke="#d7e0d8" stroke-width="4"/>
  <rect x="118.545" y="128.609" width="13.091" height="14.087" fill="#7b8b84" stroke="#d7e0d8" stroke-width="4"/>
  <rect x="118.545" y="128.609" width="13.091" height="14.087" fill="#7b8b84" stroke="#d7e0d8" stroke-width="4"/>
  <rect x="184" y="128.609" width="13.091" height="14.087" fill="#7b8b84" stroke="#d7e0d8" stroke-width="4"/>
  <rect x="197.091" y="128.609" width="13.091" height="14.087" fill="#7b8b84" stroke="#d7e0d8" stroke-width="4"/>
  <rect x="210.182" y="128.609" width="13.091" height="14.087" fill="#7b8b84" stroke="#d7e0d8" stroke-width="4"/>
  <rect x="223.273" y="128.609" width="13.091" height="14.087" fill="#7b8b84" stroke="#d7e0d8" stroke-width="4"/>
  <rect x="223.273" y="128.609" width="13.091" height="14.087" fill="#7b8b84" stroke="#d7e0d8" stroke-width="4"/>
  <rect x="275.636" y="128.609" width="13.091" height="14.087" fill="#7b8b84" stroke="#d7e0d8" stroke-width="4"/>
  <rect x="275.636" y="128.609" width="13.091" height="14.087" fill="#7b8b84" stroke="#d7e0d8" stroke-width="4"/>
  <rect x="288.727" y="128.609" width="13.091" height="14.087" fill="#7b8b84" stroke="#d7e0d8" stroke-width="4"/>
  <rect x="301.818" y="128.609" width="13.091" height="14.087" fill="#7b8b84" stroke="#d7e0d8" stroke-width="4"/>
  <rect x="314.909" y="128.609" width="13.091" height="14.087" fill="#7b8b84" stroke="#d7e0d8" stroke-width="4"/>
  <rect x="380.364" y="128.609" width="13.091" height="14.087" fill="#7b8b84" stroke="#d7e0d8" stroke-width="4"/>
  <rect x="380.364" y="128.609" width="13.091" height="14.087" fill="#7b8b84" stroke="#d7e0d8" stroke-width="4"/>
  <rect x="393.455" y="128.609" width="13.091" height="14.087" fill="#7b8b84" stroke="#d7e0d8" stroke-width="4"/>
  <rect x="393.455" y="128.609" width="13.091" height="14.087" fill="#7b8b84" stroke="#d7e0d8" stroke-width="4"/>
  <rect x="105.455" y="142.696" width="13.091" height="14.087" fill="#7b8b84" stroke="#d7e0d8" stroke-width="4"/>
  <rect x="393.455" y="142.696" width="13.091" height="14.087" fill="#7b8b84" stroke="#d7e0d8" stroke-width="4"/>
  <rect x="105.455" y="156.783" width="13.091" height="14.087" fill="#7b8b84" stroke="#d7e0d8" stroke-width="4"/>
  <rect x="144.727" y="156.783" width="13.091" height="14.087" fill="#7b8b84" stroke="#d7e0d8" stroke-width="4"/>
  <rect x="144.727" y="156.783" width="13.091" height="14.087" fill="#7b8b84" stroke="#d7e0d8" stroke-width="4"/>
  <rect x="157.818" y="156.783" width="13.091" height="14.087" fill="#7b8b84" stroke="#d7e0d8" stroke-width="4"/>
  <rect x="170.909" y="156.783" width="13.091" height="14.087" fill="#7b8b84" stroke="#d7e0d8" stroke-width="4"/>
  <rect x="328" y="156.783" width="13.091" height="14.087" fill="#7b8b84" stroke="#d7e0d8" stroke-width="4"/>
  <rect x="341.091" y="156.783" width="13.091" height="14.087" fill="#7b8b84" stroke="#d7e0d8" stroke-width="4"/>
  <rect x="354.182" y="156.783" width="13.091" height="14.087" fill="#7b8b84" stroke="#d7e0d8" stroke-width="4"/>
  <rect x="354.182" y="156.783" width="13.091" height="14.087" fill="#7b8b84" stroke="#d7e0d8" stroke-width="4"/>
  <rect x="393.455" y="156.783" width="13.091" height="14.087" fill="#7b8b84" stroke="#d7e0d8" stroke-width="4"/>
  <rect x="144.727" y="170.87" width="13.091" height="14.087" fill="#7b8b84" stroke="#d7e0d8" stroke-width="4"/>
  <rect x="223.273" y="170.87" width="13.091" height="14.087" fill="#7b8b84" stroke="#d7e0d8" stroke-width="4"/>
  <rect x="223.273" y="170.87" width="13.091" height="14.087" fill="#7b8b84" stroke="#d7e0d8" stroke-width="4"/>
  <rect x="236.364" y="170.87" width="13.091" height="14.087" fill="#7b8b84" stroke="#d7e0d8" stroke-width="4"/>
  <rect x="249.455" y="170.87" width="13.091" height="14.087" fill="#7b8b84" stroke="#d7e0d8" stroke-width="4"/>
  <rect x="262.545" y="170.87" width="13.091" height="14.087" fill="#7b8b84" stroke="#d7e0d8" stroke-width="4"/>
  <rect x="275.636" y="170.87" width="13.091" height="14.087" fill="#7b8b84" stroke="#d7e0d8" stroke-width="4"/>
  <rect x="275.636" y="170.87" width="13.091" height="14.087" fill="#7b8b84" stroke="#d7e0d8" stroke-width="4"/>
  <rect x="354.182" y="170.87" width="13.091" height="14.087" fill="#7b8b84" stroke="#d7e0d8" stroke-width="4"/>
  <rect x="144.727" y="184.957" width="13.091" height="14.087" fill="#7b8b84" stroke="#d7e0d8" stroke-width="4"/>
  <rect x="223.273" y="184.957" width="13.091" height="14.087" fill="#7b8b84" stroke="#d7e0d8" stroke-width="4"/>
  <rect x="275.636" y="184.957" width="13.091" height="14.087" fill="#7b8b84" stroke="#d7e0d8" stroke-width="4"/>
  <rect x="354.182" y="184.957" width="13.091" height="14.087" fill="#7b8b84" stroke="#d7e0d8" stroke-width="4"/>
  <rect x="144.727" y="199.043" width="13.091" height="14.087" fill="#7b8b84" stroke="#d7e0d8" stroke-width="4"/>
  <rect x="223.273" y="199.043" width="13.091" height="14.087" fill="#7b8b84" stroke="#d7e0d8" stroke-width="4"/>
  <rect x="223.273" y="199.043" width="13.091" height="14.087" fill="#7b8b84" stroke="#d7e0d8" stroke-width="4"/>
  <rect x="236.364" y="199.043" width="13.091" height="14.087" fill="#7b8b84" stroke="#d7e0d8" stroke-width="4"/>
  <rect x="249.455" y="199.043" width="13.091" height="14.087" fill="#7b8b84" stroke="#d7e0d8" stroke-width="4"/>
  <rect x="262.545" y="199.043" width="13.091" height="14.087" fill="#7b8b84" stroke="#d7e0d8" stroke-width="4"/>
  <rect x="275.636" y="199.043" width="13.091" height="14.087" fill="#7b8b84" stroke="#d7e0d8" stroke-width="4"/>
  <rect x="275.636" y="199.043" width="13.091" height="14.087" fill="#7b8b84" stroke="#d7e0d8" stroke-width="4"/>
  <rect x="354.182" y="199.043" width="13.091" height="14.087" fill="#7b8b84" stroke="#d7e0d8" stroke-width="4"/>
  <rect x="105.455" y="213.13" width="13.091" height="14.087" fill="#7b8b84" stroke="#d7e0d8" stroke-width="4"/>
  <rect x="144.727" y="213.13" width="13.091" height="14.087" fill="#7b8b84" stroke="#d7e0d8" stroke-width="4"/>
  <rect x="144.727" y="213.13" width="13.091" height="14.087" fill="#7b8b84" stroke="#d7e0d8" stroke-width="4"/>
  <rect x="157.818" y="213.13" width="13.091" height="14.087" fill="#7b8b84" stroke="#d7e0d8" stroke-width="4"/>
  <rect x="170.909" y="213.13" width="13.091" height="14.087" fill="#7b8b84" stroke="#d7e0d8" stroke-width="4"/>
  <rect x="328" y="213.13" width="13.091" height="14.087" fill="#7b8b84" stroke="#d7e0d8" stroke-width="4"/>
  <rect x="341.091" y="213.13" width="13.091" height="14.087" fill="#7b8b84" stroke="#d7e0d8" stroke-width="4"/>
  <rect x="354.182" y="213.13" width="13.091" height="14.087" fill="#7b8b84" stroke="#d7e0d8" stroke-width="4"/>
  <rect x="354.182" y="213.13" width="13.091" height="14.087" fill="#7b8b84" stroke="#d7e0d8" stroke-width="4"/>
  <rect x="393.455" y="213.13" width="13.091" height="14.087" fill="#7b8b84" stroke="#d7e0d8" stroke-width="4"/>
  <rect x="105.455" y="227.217" width="13.091" height="14.087" fill="#7b8b84" stroke="#d7e0d8" stroke-width="4"/>
  <rect x="393.455" y="227.217" width="13.091" height="14.087" fill="#7b8b84" stroke="#d7e0d8" stroke-width="4"/>
  <rect x="105.455" y="241.304" width="13.091" height="14.087" fill="#7b8b84" stroke="#d7e0d8" stroke-width="4"/>
  <rect x="105.455" y="241.304" width="13.091" height="14.087" fill="#7b8b84" stroke="#d7e0d8" stroke-width="4"/>
  <rect x="118.545" y="241.304" width="13.091" height="14.087" fill="#7b8b84" stroke="#d7e0d8" stroke-width="4"/>
  <rect x="118.545" y="241.304" width="13.091" height="14.087" fill="#7b8b84" stroke="#d7e0d8" stroke-width="4"/>
  <rect x="184" y="241.304" width="13.091" height="14.087" fill="#7b8b84" stroke="#d7e0d8" stroke-width="4"/>
  <rect x="197.091" y="241.304" width="13.091" height="14.087" fill="#7b8b84" stroke="#d7e0d8" stroke-width="4"/>
  <rect x="210.182" y="241.304" width="13.091" height="14.087" fill="#7b8b84" stroke="#d7e0d8" stroke-width="4"/>
  <rect x="223.273" y="241.304" width="13.091" height="14.087" fill="#7b8b84" stroke="#d7e0d8" stroke-width="4"/>
  <rect x="223.273" y="241.304" width="13.091" height="14.087" fill="#7b8b84" stroke="#d7e0d8" stroke-width="4"/>
  <rect x="275.636" y="241.304" width="13.091" height="14.087" fill="#7b8b84" stroke="#d7e0d8" stroke-width="4"/>
  <rect x="275.636" y="241.304" width="13.091" height="14.087" fill="#7b8b84" stroke="#d7e0d8" stroke-width="4"/>
  <rect x="288.727" y="241.304" width="13.091" height="14.087" fill="#7b8b84" stroke="#d7e0d8" stroke-width="4"/>
  <rect x="301.818" y="241.304" width="13.091" height="14.087" fill="#7b8b84" stroke="#d7e0d8" stroke-width="4"/>
  <rect x="314.909" y="241.304" width="13.091" height="14.087" fill="#7b8b84" stroke="#d7e0d8" stroke-width="4"/>
  <rect x="380.364" y="241.304" width="13.091" height="14.087" fill="#7b8b84" stroke="#d7e0d8" stroke-width="4"/>
  <rect x="380.364" y="241.304" width="13.091" height="14.087" fill="#7b8b84" stroke="#d7e0d8" stroke-width="4"/>
  <rect x="393.455" y="241.304" width="13.091" height="14.087" fill="#7b8b84" stroke="#d7e0d8" stroke-width="4"/>
  <rect x="393.455" y="241.304" width="13.091" height="14.087" fill="#7b8b84" stroke="#d7e0d8" stroke-width="4"/>
  <rect x="118.545" y="255.391" width="13.091" height="14.087" fill="#7b8b84" stroke="#d7e0d8" stroke-width="4"/>
  <rect x="223.273" y="255.391" width="13.091" height="14.087" fill="#7b8b84" stroke="#d7e0d8" stroke-width="4"/>
  <rect x="275.636" y="255.391" width="13.091" height="14.087" fill="#7b8b84" stroke="#d7e0d8" stroke-width="4"/>
  <rect x="380.364" y="255.391" width="13.091" height="14.087" fill="#7b8b84" stroke="#d7e0d8" stroke-width="4"/>
  <rect x="118.545" y="269.478" width="13.091" height="14.087" fill="#7b8b84" stroke="#d7e0d8" stroke-width="4"/>
  <rect x="118.545" y="269.478" width="13.091" height="14.087" fill="#7b8b84" stroke="#d7e0d8" stroke-width="4"/>
  <rect x="131.636" y="269.478" width="13.091" height="14.087" fill="#7b8b84" stroke="#d7e0d8" stroke-width="4"/>
  <rect x="223.273" y="269.478" width="13.091" height="14.087" fill="#7b8b84" stroke="#d7e0d8" stroke-width="4"/>
  <rect x="275.636" y="269.478" width="13.091" height="14.087" fill="#7b8b84" stroke="#d7e0d8" stroke-width="4"/>
  <rect x="367.273" y="269.478" width="13.091" height="14.087" fill="#7b8b84" stroke="#d7e0d8" stroke-width="4"/>
  <rect x="380.364" y="269.478" width="13.091" height="14.087" fill="#7b8b84" stroke="#d7e0d8" stroke-width="4"/>
  <rect x="380.364" y="269.478" width="13.091" height="14.087" fill="#7b8b84" stroke="#d7e0d8" stroke-width="4"/>
  <rect x="223.273" y="283.565" width="13.091" height="14.087" fill="#7b8b84" stroke="#d7e0d8" stroke-width="4"/>
  <rect x="223.273" y="283.565" width="13.091" height="14.087" fill="#7b8b84" stroke="#d7e0d8" stroke-width="4"/>
  <rect x="236.364" y="283.565" width="13.091" height="14.087" fill="#7b8b84" stroke="#d7e0d8" stroke-width="4"/>
  <rect x="249.455" y="283.565" width="13.091" height="14.087" fill="#7b8b84" stroke="#d7e0d8" stroke-width="4"/>
  <rect x="262.545" y="283.565" width="13.091" height="14.087" fill="#7b8b84" stroke="#d7e0d8" stroke-width="4"/>
  <rect x="275.636" y="283.565" width="13.091" height="14.087" fill="#7b8b84" stroke="#d7e0d8" stroke-width="4"/>
  <rect x="275.636" y="283.565" width="13.091" height="14.087" fill="#7b8b84" stroke="#d7e0d8" stroke-width="4"/>
  <text x="58" y="58" fill="#8ea79b" font-family="system-ui, sans-serif" font-size="18">Custom duel room</text>
</svg>
