<svg xmlns="http://www.w3.org/2000/svg" viewBox="0 0 24 20" shape-rendering="crispEdges">
  <path fill="#161919" d="M8 3h8v2h3v2h3v9h-3v2H4v-2H2V7h3V5h3z"/>
  <path fill="#5d6964" d="M8 4h8v3h-2V5h-4v2H8z"/>
  <path fill="#aab5a8" d="M5 7h14v2h2v6h-3v2H5v-2H3V9h2z"/>
  <path fill="#dce0cb" d="M6 6h12v2h2v3H5V8h1z"/>
  <path fill="#7e8b81" d="M3 11h3v4h12v2H5v-2H3z"/>
  <path fill="#4c5955" d="M19 10h2v5h-3v2h-2v-3h3z"/>
  <path fill="#eff0d8" d="M8 8h8v7H8z"/>
  <path fill="#b51e24" d="M11 8h3v2h2v3h-2v2h-3v-2H8v-3h3z"/>
  <path fill="#ee4b40" d="M11 8h2v3H9v1H8v-2h3z"/>
</svg>
